<?xml version="1.0" encoding="UTF-8"?>
<!--suppress XmlHighlighting -->
<svg id="Livello_2" data-name="Livello 2" xmlns="http://www.w3.org/2000/svg" viewBox="0 0 1114.87 583.19">
  <defs>
    <style>
      .cls-1 {
        fill: #0093f7;
      }

      .cls-1, .cls-2, .cls-3, .cls-4 {
        stroke-width: 0px;
      }

      .cls-2 {
        fill: #2daef7;
      }

      .cls-3 {
        fill: #0053fb;
      }

      .cls-4 {
        fill: #66d0ff;
      }
    </style>
  </defs>
  <g id="Livello_1-2" data-name="Livello 1">
    <g>
      <path class="cls-2" d="m982.83,411.79c-14.09-6.18-25.22-14.65-33.38-25.41-8.16-10.75-12.74-22.81-13.72-36.16h62.68c.74,7.18,4.08,12.98,10.01,17.44,5.93,4.45,13.22,6.67,21.88,6.67,7.91,0,14.03-1.54,18.36-4.64,4.32-3.09,6.49-7.1,6.49-12.05,0-5.93-3.09-10.32-9.27-13.17-6.18-2.84-16.2-5.99-30.04-9.46-14.84-3.46-27.2-7.1-37.09-10.94-9.89-3.83-18.42-9.89-25.59-18.18-7.17-8.28-10.76-19.47-10.76-33.57,0-11.87,3.27-22.68,9.83-32.45,6.55-9.77,16.19-17.49,28.93-23.18,12.73-5.69,27.88-8.53,45.44-8.53,25.96,0,46.42,6.43,61.38,19.29,14.96,12.86,23.55,29.92,25.78,51.18h-58.6c-.99-7.17-4.14-12.85-9.46-17.06-5.32-4.2-12.3-6.31-20.96-6.31-7.42,0-13.11,1.43-17.06,4.26-3.96,2.85-5.93,6.74-5.93,11.68,0,5.93,3.15,10.38,9.46,13.35,6.31,2.97,16.13,5.93,29.49,8.9,15.33,3.96,27.82,7.85,37.46,11.68,9.64,3.84,18.11,10.01,25.41,18.55,7.29,8.53,11.06,19.97,11.31,34.31,0,12.12-3.4,22.94-10.2,32.45-6.8,9.52-16.57,17-29.3,22.44-12.74,5.43-27.51,8.16-44.32,8.16-18.05,0-34.12-3.09-48.22-9.27Z"/>
      <polygon class="cls-2" points="647.05 215.13 602.01 347.2 556.96 215.13 488.84 215.13 562.55 414.1 641.09 414.1 714.8 215.13 647.05 215.13"/>
      <path class="cls-2" d="m874.07,408.43c16.5-8.69,29.53-21.16,39.09-37.42.96-1.63,1.83-3.3,2.69-4.97l-58.26-30.53c-7.15,13.73-21.5,23.12-38.05,23.12-23.7,0-42.91-19.21-42.91-42.9s19.21-42.91,42.91-42.91c15.85,0,29.66,8.62,37.09,21.4l59.34-31.1c-.84-1.65-1.69-3.31-2.62-4.91-9.43-16.25-22.34-28.72-38.72-37.41-16.38-8.68-34.75-13.03-55.09-13.03s-38.71,4.35-55.09,13.03c-16.38,8.69-29.29,21.16-38.72,37.41-9.44,16.26-14.15,35.06-14.15,56.4s4.65,40.46,13.96,56.58c9.31,16.13,22.09,28.54,38.34,37.23,16.25,8.69,34.56,13.03,54.91,13.03s38.77-4.34,55.28-13.03Z"/>
    </g>
    <g>
      <path class="cls-3" d="m.22,362.05c0,72.05,47.21,117.29,97.74,151.62l106.82-19.5V0L0,115.5c.12,91.7.22,192.47.22,246.55Z"/>
      <path class="cls-1" d="m57.91,482.5c48.76,44.64,115.3,71.64,145.17,100.68,16.9-16.9,46.3-33.92,77.56-53.99V16.14L57.91,141.76v340.75Z"/>
      <path class="cls-2" d="m126.18,531.77c30.83,18.91,59.84,34.83,76.9,51.41,29.44-29.44,96.79-59.24,145.83-104.88V31.81l-222.73,125.62v374.34Z"/>
      <path class="cls-4" d="m202.94,178.17v404.88s.09.09.14.13c48.98-48.98,202.85-98.92,202.85-221.13,0-76.28.31-219.9.49-298.64l-203.48,114.76Z"/>
    </g>
  </g>
</svg>
